<svg width="33" height="27" viewBox="0 0 33 27" fill="none" xmlns="http://www.w3.org/2000/svg">
<path d="M21.5 1.5H1.5V18.8333H21.5V1.5Z" stroke="#FD6400" stroke-width="3" stroke-linecap="round" stroke-linejoin="round"/>
<path d="M21.5 8.16699H26.8333L30.8333 12.167V18.8337H21.5V8.16699Z" stroke="#FD6400" stroke-width="3" stroke-linecap="round" stroke-linejoin="round"/>
<path d="M7.50008 25.4997C9.34103 25.4997 10.8334 24.0073 10.8334 22.1663C10.8334 20.3254 9.34103 18.833 7.50008 18.833C5.65913 18.833 4.16675 20.3254 4.16675 22.1663C4.16675 24.0073 5.65913 25.4997 7.50008 25.4997Z" stroke="#FD6400" stroke-width="3" stroke-linecap="round" stroke-linejoin="round"/>
<path d="M24.8333 25.4997C26.6743 25.4997 28.1667 24.0073 28.1667 22.1663C28.1667 20.3254 26.6743 18.833 24.8333 18.833C22.9924 18.833 21.5 20.3254 21.5 22.1663C21.5 24.0073 22.9924 25.4997 24.8333 25.4997Z" stroke="#FD6400" stroke-width="3" stroke-linecap="round" stroke-linejoin="round"/>
</svg>
