<svg width="310" height="78" viewBox="0 0 310 78" fill="none" xmlns="http://www.w3.org/2000/svg">
<path d="M25.5479 63.5156H1.59675V61.36H7.98373V17.7688H1.59675V15.6132H25.5479V17.7688H19.161V61.36H23.3923C24.5101 61.4665 25.2286 62.185 25.5479 63.5156ZM48.7008 61.4399C49.0201 61.4399 49.3129 61.4665 49.579 61.5197C50.2709 61.6261 50.6169 62.2915 50.6169 63.5156H28.3423V61.4399C32.2809 61.4399 34.3034 60.056 34.4099 57.2883V13.6971H28.3423V11.6214H44.5492V45.8716L59.9578 31.2613H54.1297V29.1856H67.6222C67.6222 29.4517 67.5956 29.7178 67.5424 29.9839C67.3827 30.8355 66.7174 31.2613 65.5465 31.2613C65.1207 31.2613 64.6949 31.288 64.2691 31.3412C63.2578 31.5541 61.8207 32.5387 59.9578 34.2952L54.0499 39.9636L66.9037 61.4399H68.1012C68.4738 61.4399 68.7932 61.4665 69.0593 61.5197C69.698 61.6794 70.0173 62.3447 70.0173 63.5156L56.7643 63.5955L47.0242 46.7498L44.5492 49.1449V61.4399H48.7008Z" fill="#FD6400"/>
<path d="M25.5479 63.5156H1.59675V61.36H7.98373V17.7688H1.59675V15.6132H25.5479V17.7688H19.161V61.36H23.3923C24.5101 61.4665 25.2286 62.185 25.5479 63.5156ZM48.7008 61.4399C49.0201 61.4399 49.3129 61.4665 49.579 61.5197C50.2709 61.6261 50.6169 62.2915 50.6169 63.5156H28.3423V61.4399C32.2809 61.4399 34.3034 60.056 34.4099 57.2883V13.6971H28.3423V11.6214H44.5492V45.8716L59.9578 31.2613H54.1297V29.1856H67.6222C67.6222 29.4517 67.5956 29.7178 67.5424 29.9839C67.3827 30.8355 66.7174 31.2613 65.5465 31.2613C65.1207 31.2613 64.6949 31.288 64.2691 31.3412C63.2578 31.5541 61.8207 32.5387 59.9578 34.2952L54.0499 39.9636L66.9037 61.4399H68.1012C68.4738 61.4399 68.7932 61.4665 69.0593 61.5197C69.698 61.6794 70.0173 62.3447 70.0173 63.5156L56.7643 63.5955L47.0242 46.7498L44.5492 49.1449V61.4399H48.7008Z" fill="#FD6400"/>
<path d="M113.088 63.2637V37.7157H117.346V41.3776C118.282 39.9867 119.46 38.9505 120.88 38.2693C122.328 37.5596 123.846 37.2048 125.436 37.2048C127.167 37.2048 128.757 37.6164 130.205 38.4396C131.653 39.2344 132.816 40.3557 133.696 41.8034C134.69 40.2705 135.967 39.1209 137.529 38.3544C139.118 37.588 140.793 37.2048 142.553 37.2048C144.483 37.2048 146.243 37.659 147.833 38.5673C149.451 39.4757 150.728 40.7531 151.665 42.3995C152.63 44.0175 153.113 45.9336 153.113 48.1478V63.2637H148.514V48.7013C148.514 46.3736 147.847 44.6137 146.513 43.4214C145.207 42.2008 143.688 41.5905 141.957 41.5905C140.878 41.5905 139.828 41.8318 138.806 42.3144C137.812 42.7969 136.989 43.5492 136.336 44.5711C135.712 45.593 135.4 46.9272 135.4 48.5736V63.2637H130.801V48.7013C130.801 47.0833 130.474 45.7491 129.822 44.6988C129.197 43.6485 128.374 42.8679 127.352 42.3569C126.358 41.8176 125.322 41.5479 124.244 41.5479C123.193 41.5479 122.157 41.7892 121.135 42.2718C120.142 42.7543 119.319 43.5066 118.666 44.5285C118.013 45.5504 117.686 46.8988 117.686 48.5736V63.2637H113.088ZM160.751 63.2637V37.7157H165.009V41.3776C165.945 39.9867 167.123 38.9505 168.543 38.2693C169.99 37.5596 171.509 37.2048 173.099 37.2048C174.83 37.2048 176.42 37.6164 177.868 38.4396C179.315 39.2344 180.479 40.3557 181.359 41.8034C182.353 40.2705 183.63 39.1209 185.191 38.3544C186.781 37.588 188.456 37.2048 190.216 37.2048C192.146 37.2048 193.906 37.659 195.496 38.5673C197.114 39.4757 198.391 40.7531 199.328 42.3995C200.293 44.0175 200.776 45.9336 200.776 48.1478V63.2637H196.177V48.7013C196.177 46.3736 195.51 44.6137 194.176 43.4214C192.87 42.2008 191.351 41.5905 189.62 41.5905C188.541 41.5905 187.491 41.8318 186.469 42.3144C185.475 42.7969 184.652 43.5492 183.999 44.5711C183.375 45.593 183.062 46.9272 183.062 48.5736V63.2637H178.464V48.7013C178.464 47.0833 178.137 45.7491 177.484 44.6988C176.86 43.6485 176.037 42.8679 175.015 42.3569C174.021 41.8176 172.985 41.5479 171.907 41.5479C170.856 41.5479 169.82 41.7892 168.798 42.2718C167.805 42.7543 166.981 43.5066 166.329 44.5285C165.676 45.5504 165.349 46.8988 165.349 48.5736V63.2637H160.751ZM220.591 63.7746C217.923 63.7746 215.524 63.1785 213.395 61.9863C211.295 60.794 209.634 59.176 208.413 57.1322C207.221 55.0599 206.625 52.7606 206.625 50.2342C206.625 47.8214 207.207 45.6356 208.371 43.6769C209.535 41.6898 211.096 40.1144 213.055 38.9505C215.042 37.7867 217.227 37.2048 219.612 37.2048C221.968 37.2048 224.125 37.7725 226.084 38.908C228.043 40.015 229.604 41.5195 230.768 43.4214C231.932 45.3233 232.514 47.4807 232.514 49.8936V51.7671H215.822C215.084 51.7671 214.332 51.7387 213.566 51.6819C212.799 51.6252 212.047 51.54 211.309 51.4265C211.621 53.6974 212.643 55.5993 214.375 57.1322C216.135 58.665 218.221 59.4315 220.634 59.4315C222.252 59.4315 223.756 59.0625 225.147 58.3244C226.538 57.5863 227.66 56.607 228.511 55.3864L229.789 60.6237C228.568 61.6172 227.163 62.3979 225.573 62.9656C224.012 63.505 222.351 63.7746 220.591 63.7746ZM211.181 48.3181C212.714 48.0626 214.261 47.9349 215.822 47.9349H224.296C224.92 47.9349 225.531 47.9633 226.127 48.0201C226.751 48.0484 227.376 48.091 228 48.1478C227.603 46.1607 226.609 44.5285 225.02 43.2511C223.43 41.9453 221.627 41.2924 219.612 41.2924C217.54 41.2924 215.723 41.9879 214.162 43.3789C212.6 44.7414 211.607 46.3878 211.181 48.3181ZM238.652 63.2637V37.7157H242.91V42.3995C243.818 40.895 245.025 39.7028 246.529 38.8228C248.034 37.9144 249.822 37.4602 251.894 37.4602L253.044 42.0589C252.505 41.8886 251.88 41.8034 251.17 41.8034C248.786 41.8034 246.87 42.5698 245.422 44.1027C243.974 45.6072 243.25 47.7646 243.25 50.5749V63.2637H238.652ZM268.727 63.7746C266.229 63.7746 263.958 63.1785 261.914 61.9863C259.87 60.794 258.238 59.1902 257.017 57.1747C255.796 55.1593 255.186 52.9309 255.186 50.4897C255.186 48.0484 255.796 45.8201 257.017 43.8047C258.238 41.7892 259.87 40.1854 261.914 38.9931C263.958 37.8009 266.229 37.2048 268.727 37.2048C270.572 37.2048 272.303 37.5312 273.921 38.1841C275.539 38.837 276.959 39.7028 278.179 40.7815L276.774 46.5723C276.065 45.153 274.986 43.9608 273.538 42.9956C272.119 42.0305 270.501 41.5479 268.684 41.5479C267.038 41.5479 265.533 41.9595 264.171 42.7827C262.836 43.5776 261.772 44.6562 260.977 46.0188C260.182 47.353 259.785 48.8433 259.785 50.4897C259.785 52.1077 260.182 53.598 260.977 54.9606C261.772 56.3231 262.836 57.416 264.171 58.2392C265.533 59.0341 267.038 59.4315 268.684 59.4315C270.501 59.4315 272.119 58.9631 273.538 58.0263C274.986 57.0896 276.065 55.8832 276.774 54.407L278.179 60.1979C276.959 61.2766 275.539 62.1424 273.921 62.7953C272.303 63.4482 270.572 63.7746 268.727 63.7746ZM282.735 76.0376L291.038 59.5166L280.223 37.7157H285.418L290.868 48.7865C291.351 49.78 291.819 50.7594 292.273 51.7245C292.727 52.6897 293.182 53.8535 293.636 55.2161C294.118 53.8535 294.573 52.6897 294.998 51.7245C295.453 50.731 295.935 49.7516 296.446 48.7865L301.981 37.7157H306.878L287.717 76.0376H282.735Z" fill="#FD6400"/>
<path d="M71.4796 35.701C71.4829 34.9159 72.1234 34.28 72.9161 34.2749L75.6281 34.2573C76.9394 34.2488 78.0985 34.9969 78.6361 36.1268L103.133 35.9678C104.701 35.9577 105.839 37.4261 105.421 38.9283L102.94 47.9352C102.425 49.7922 100.721 51.0962 98.7839 51.1087L81.5881 51.2203L81.9028 52.9008C82.0312 53.567 82.6192 54.0473 83.3046 54.0428L100.489 53.9313C101.281 53.9261 101.916 54.5537 101.913 55.3388C101.91 56.124 101.269 56.7598 100.477 56.765L83.2926 56.8765C81.2303 56.8899 79.4662 55.4491 79.0932 53.4503L76.0853 37.4717C76.0446 37.2476 75.8486 37.0895 75.6161 37.091L72.9041 37.1086C72.1114 37.1137 71.4763 36.4862 71.4796 35.701ZM78.999 61.6271C79.0006 61.255 79.0762 60.886 79.2214 60.5413C79.3666 60.1965 79.5787 59.8828 79.8455 59.6179C80.1123 59.3531 80.4286 59.1423 80.7763 58.9976C81.124 58.853 81.4963 58.7773 81.872 58.7748C82.2477 58.7724 82.6195 58.8433 82.966 58.9834C83.3125 59.1236 83.627 59.3303 83.8916 59.5917C84.1561 59.8531 84.3655 60.1641 84.5079 60.507C84.6502 60.8498 84.7226 61.2178 84.721 61.59C84.7195 61.9621 84.6439 62.331 84.4987 62.6758C84.3534 63.0205 84.1414 63.3343 83.8746 63.5991C83.6078 63.864 83.2915 64.0748 82.9438 64.2194C82.5961 64.3641 82.2238 64.4398 81.8481 64.4422C81.4723 64.4447 81.1006 64.3738 80.7541 64.2336C80.4076 64.0935 80.0931 63.8868 79.8285 63.6254C79.564 63.364 79.3546 63.053 79.2122 62.7101C79.0699 62.3672 78.9975 61.9992 78.999 61.6271ZM99.038 58.6634C99.7968 58.6585 100.523 58.9523 101.058 59.4802C101.592 60.0082 101.89 60.727 101.887 61.4785C101.884 62.2301 101.579 62.9528 101.041 63.4877C100.502 64.0226 99.7728 64.3259 99.014 64.3308C98.2553 64.3357 97.5288 64.0419 96.9945 63.514C96.4602 62.986 96.1619 62.2672 96.165 61.5157C96.1682 60.7641 96.4727 60.0414 97.0115 59.5065C97.5503 58.9716 98.2792 58.6683 99.038 58.6634Z" fill="#FD6400"/>
<path d="M71.4796 35.701C71.4829 34.9159 72.1234 34.28 72.9161 34.2749L75.6281 34.2573C76.9394 34.2488 78.0985 34.9969 78.6361 36.1268L103.133 35.9678C104.701 35.9577 105.839 37.4261 105.421 38.9283L102.94 47.9352C102.425 49.7922 100.721 51.0962 98.7839 51.1087L81.5881 51.2203L81.9028 52.9008C82.0312 53.567 82.6192 54.0473 83.3046 54.0428L100.489 53.9313C101.281 53.9261 101.916 54.5537 101.913 55.3388C101.91 56.124 101.269 56.7598 100.477 56.765L83.2926 56.8765C81.2303 56.8899 79.4662 55.4491 79.0932 53.4503L76.0853 37.4717C76.0446 37.2476 75.8486 37.0895 75.6161 37.091L72.9041 37.1086C72.1114 37.1137 71.4763 36.4862 71.4796 35.701ZM78.999 61.6271C79.0006 61.255 79.0762 60.886 79.2214 60.5413C79.3666 60.1965 79.5787 59.8828 79.8455 59.6179C80.1123 59.3531 80.4286 59.1423 80.7763 58.9976C81.124 58.853 81.4963 58.7773 81.872 58.7748C82.2477 58.7724 82.6195 58.8433 82.966 58.9834C83.3125 59.1236 83.627 59.3303 83.8916 59.5917C84.1561 59.8531 84.3655 60.1641 84.5079 60.507C84.6502 60.8498 84.7226 61.2178 84.721 61.59C84.7195 61.9621 84.6439 62.331 84.4987 62.6758C84.3534 63.0205 84.1414 63.3343 83.8746 63.5991C83.6078 63.864 83.2915 64.0748 82.9438 64.2194C82.5961 64.3641 82.2238 64.4398 81.8481 64.4422C81.4723 64.4447 81.1006 64.3738 80.7541 64.2336C80.4076 64.0935 80.0931 63.8868 79.8285 63.6254C79.564 63.364 79.3546 63.053 79.2122 62.7101C79.0699 62.3672 78.9975 61.9992 78.999 61.6271ZM99.038 58.6634C99.7968 58.6585 100.523 58.9523 101.058 59.4802C101.592 60.0082 101.89 60.727 101.887 61.4785C101.884 62.2301 101.579 62.9528 101.041 63.4877C100.502 64.0226 99.7728 64.3259 99.014 64.3308C98.2553 64.3357 97.5288 64.0419 96.9945 63.514C96.4602 62.986 96.1619 62.2672 96.165 61.5157C96.1682 60.7641 96.4727 60.0414 97.0115 59.5065C97.5503 58.9716 98.2792 58.6683 99.038 58.6634Z" fill="#FD6400"/>
<path d="M20.1937 3.74696L17.0493 6.81271L13.3809 1.70312L9.71248 6.81271L6.56812 3.74696V10.3894C6.56812 10.796 6.73376 11.1859 7.0286 11.4733C7.32344 11.7608 7.72333 11.9223 8.1403 11.9223H18.6215C19.0385 11.9223 19.4384 11.7608 19.7332 11.4733C20.028 11.1859 20.1937 10.796 20.1937 10.3894V3.74696Z" fill="#FD6400"/>
</svg>
