<svg width="36" height="24" viewBox="0 0 36 24" fill="none" xmlns="http://www.w3.org/2000/svg">
<path d="M28 3H13V16H28V3Z" stroke="black" stroke-width="1.5" stroke-linecap="round" stroke-linejoin="round"/>
<path d="M28 8H32L35 11V16H28V8Z" stroke="black" stroke-width="1.5" stroke-linecap="round" stroke-linejoin="round"/>
<path d="M17.5 21C18.8807 21 20 19.8807 20 18.5C20 17.1193 18.8807 16 17.5 16C16.1193 16 15 17.1193 15 18.5C15 19.8807 16.1193 21 17.5 21Z" stroke="black" stroke-width="1.5" stroke-linecap="round" stroke-linejoin="round"/>
<path d="M30.5 21C31.8807 21 33 19.8807 33 18.5C33 17.1193 31.8807 16 30.5 16C29.1193 16 28 17.1193 28 18.5C28 19.8807 29.1193 21 30.5 21Z" stroke="black" stroke-width="1.5" stroke-linecap="round" stroke-linejoin="round"/>
<line x1="8" y1="7.75" x2="1" y2="7.75" stroke="black" stroke-width="1.5"/>
<line x1="6" y1="15.75" y2="15.75" stroke="black" stroke-width="1.5"/>
<line x1="10" y1="11.75" x2="3" y2="11.75" stroke="black" stroke-width="1.5"/>
</svg>
